<svg width="129" height="129" viewBox="0 0 129 129" fill="none" xmlns="http://www.w3.org/2000/svg">
<g opacity="0.1">
<path opacity="0.1" d="M128.12 125.12V128.12H125.12" stroke="#20263C" stroke-miterlimit="10"/>
<path opacity="0.1" d="M119.35 128.12H6.88" stroke="#20263C" stroke-miterlimit="10" stroke-dasharray="5.77 5.77"/>
<path opacity="0.1" d="M4 128.12H1V125.12" stroke="#20263C" stroke-miterlimit="10"/>
<path opacity="0.1" d="M1 119.36V6.87988" stroke="#20263C" stroke-miterlimit="10" stroke-dasharray="5.77 5.77"/>
<path opacity="0.1" d="M1 4V1H4" stroke="#20263C" stroke-miterlimit="10"/>
<path opacity="0.1" d="M9.76001 1H122.24" stroke="#20263C" stroke-miterlimit="10" stroke-dasharray="5.77 5.77"/>
<path opacity="0.1" d="M125.12 1H128.12V4" stroke="#20263C" stroke-miterlimit="10"/>
<path opacity="0.1" d="M128.12 9.77002V122.24" stroke="#20263C" stroke-miterlimit="10" stroke-dasharray="5.77 5.77"/>
</g>
<path d="M82.6708 44.0528C78.7551 40.1365 73.766 37.4693 68.3344 36.3885C62.9028 35.3077 57.2727 35.8619 52.1561 37.981C47.0395 40.1001 42.6662 43.689 39.5893 48.2936C36.5124 52.8983 34.8701 58.312 34.8701 63.8501C34.8701 69.3882 36.5124 74.8019 39.5893 79.4066C42.6662 84.0112 47.0395 87.6001 52.1561 89.7192C57.2727 91.8383 62.9028 92.3925 68.3344 91.3117C73.766 90.2309 78.7551 87.5637 82.6708 83.6474C87.9208 78.3965 90.8701 71.2753 90.8701 63.8501C90.8701 56.4249 87.9208 49.3037 82.6708 44.0528ZM42.1726 54.3746C43.5835 51.2452 45.6741 48.4695 48.2925 46.2495C50.9108 44.0295 53.991 42.4209 57.309 41.5408C60.6271 40.6607 64.0996 40.5312 67.474 41.1617C70.8484 41.7922 74.0398 43.1668 76.8163 45.1856C69.9435 44.5365 61.3399 48.0492 54.3654 55.011C51.7331 57.639 49.503 60.6411 47.7472 63.9201C45.3591 61.0789 43.4738 57.8506 42.1726 54.3746ZM57.6108 86.8546C52.2964 85.4307 47.6638 82.1587 44.545 77.6262C41.4262 73.0938 40.0255 67.5979 40.5945 62.1255C43.4835 68.4001 50.7763 74.1019 60.3472 76.6474C63.9202 77.6166 67.6181 78.0456 71.3181 77.9201C70.0606 81.3985 68.2231 84.6389 65.8835 87.5037C63.1079 87.7845 60.3043 87.5559 57.6108 86.8292V86.8546ZM75.0345 60.2419C74.091 56.6528 72.6244 53.2221 70.6817 50.0601C74.3207 49.4123 78.0432 49.3865 81.6908 49.9837C83.3235 52.244 84.5271 54.785 85.2417 57.4801C86.668 62.7953 86.1521 68.4449 83.7866 73.4138C81.4211 78.3827 77.3612 82.3451 72.3363 84.5892C76.3072 78.9765 77.5799 69.7746 75.0345 60.2419Z" fill="#414042"/>
</svg>
